<?xml version="1.0" encoding="UTF-8"?>
<!DOCTYPE svg PUBLIC "-//W3C//DTD SVG 1.1//EN" "http://www.w3.org/Graphics/SVG/1.1/DTD/svg11.dtd">
<!-- Creator: CorelDRAW 2017 -->
<svg xmlns="http://www.w3.org/2000/svg" xml:space="preserve" width="179.8mm" height="47.38mm" version="1.1" style="shape-rendering:geometricPrecision; text-rendering:geometricPrecision; image-rendering:optimizeQuality; fill-rule:evenodd; clip-rule:evenodd"
viewBox="0 0 17980 4738"
 xmlns:xlink="http://www.w3.org/1999/xlink">
 <defs>
  <style type="text/css">
   <![CDATA[
    .fil1 {fill:#FEFEFE}
    .fil0 {fill:#FEFEFE;fill-rule:nonzero}
    .fil2 {fill:#FEFEFE;fill-opacity:0.501961}
   ]]>
  </style>
 </defs>
 <g id="Layer_x0020_1">
  <metadata id="CorelCorpID_0Corel-Layer"/>
  <g id="_1594805694752">
   <path class="fil0" d="M12147 3660c-24,21 -58,40 -96,40 -78,0 -119,-78 -119,-225 0,-198 61,-243 122,-243 35,0 63,15 93,36l0 392zm-1 -548c-30,-20 -77,-40 -143,-40 -204,0 -293,195 -293,401 0,269 114,395 274,395 95,0 149,-43 179,-76l7 61 191 0 0 -1031 -215 0 0 290zm-985 756c90,0 161,-36 216,-81l9 66 189 0 0 -768 -215 0 0 552c-35,26 -76,50 -124,50 -40,0 -66,-13 -74,-59 -3,-11 -3,-34 -3,-50l0 -493 -216 23 0 497c0,27 1,69 5,96 16,102 78,167 213,167zm-688 -231c0,137 45,232 213,232 57,0 122,-11 179,-39l-26 -164c-39,18 -63,24 -89,24 -42,0 -62,-24 -62,-85l0 -783 -215 0 0 815zm-391 14c-24,30 -69,59 -113,59 -57,0 -85,-40 -85,-106 0,-85 45,-118 119,-118 35,0 62,10 79,17l0 148zm-320 -386c50,-15 114,-33 183,-33 79,0 137,32 137,118l0 21c-44,-10 -73,-14 -116,-14 -194,0 -293,93 -293,268 0,135 74,243 229,243 98,0 172,-45 214,-85 17,55 60,86 130,86 40,0 92,-8 133,-26l-15 -132c-16,5 -27,8 -37,8 -31,0 -40,-23 -40,-58l0 -248c0,-56 -4,-105 -14,-148 -32,-156 -146,-193 -296,-193 -93,0 -199,24 -244,40l29 153zm-863 521c52,33 168,87 327,87 205,0 362,-119 362,-331 0,-178 -112,-264 -277,-311 -105,-30 -178,-59 -178,-144 0,-74 49,-107 116,-107 83,0 127,63 147,133l201 -59c-36,-121 -116,-253 -346,-253 -203,0 -342,129 -342,314 0,213 150,265 274,300 119,32 180,63 182,154 0,84 -60,117 -138,117 -82,0 -175,-38 -260,-92l-68 192zm-648 -109c-37,40 -96,73 -153,73 -75,0 -110,-57 -110,-132 0,-112 59,-153 164,-153 37,0 69,7 99,15l0 197zm-338 -453c49,-16 120,-29 179,-29 109,0 159,45 159,145l0 40c-44,-10 -82,-14 -125,-14 -182,0 -290,84 -290,264 0,130 69,238 219,238 91,0 162,-40 214,-92 16,72 51,92 112,92 31,0 72,-7 106,-19l-10 -113c-17,6 -29,8 -41,8 -27,0 -41,-17 -41,-67l0 -278c0,-221 -52,-323 -281,-323 -67,0 -166,16 -214,30l13 118zm-507 431c0,128 40,213 187,213 51,0 114,-13 160,-35l-19 -119c-38,17 -76,29 -106,29 -52,0 -71,-33 -71,-108l0 -813 -151 0 0 833zm-654 -259l-267 0c0,-105 43,-204 141,-204 79,0 126,66 126,204zm144 100l0 -61c0,-230 -79,-359 -267,-359 -168,0 -297,112 -297,389 0,216 68,406 325,406 92,0 179,-28 227,-55l-10 -129c-58,32 -128,56 -201,56 -122,0 -187,-89 -190,-247l413 0zm-886 178c-33,36 -80,70 -141,70 -91,0 -149,-90 -149,-259 0,-227 74,-289 156,-289 51,0 93,26 134,58l0 420zm-1 -543c-42,-29 -91,-55 -161,-55 -205,0 -283,207 -283,404 0,264 110,388 264,388 91,0 152,-45 190,-86l4 71 136 0 0 -1031 -150 0 0 309z"/>
   <path class="fil0" d="M17448 2098c38,33 144,82 254,82 180,0 274,-103 274,-234 0,-143 -104,-189 -199,-218l-14 -4c-80,-25 -153,-49 -153,-125 0,-67 53,-95 116,-95 60,0 114,33 138,105l116 -44c-19,-82 -92,-180 -258,-180 -140,0 -260,79 -260,226 0,153 103,189 201,222l13 4c80,27 148,50 148,125 0,69 -48,97 -124,97 -73,0 -170,-50 -211,-88l-41 127zm-309 -112c-37,40 -96,73 -153,73 -75,0 -110,-57 -110,-132 0,-111 59,-153 164,-153 37,0 69,7 99,16l0 196zm-338 -453c49,-16 120,-29 180,-29 109,0 158,45 158,145l0 40c-44,-10 -82,-14 -124,-14 -183,0 -290,85 -290,264 0,130 69,238 219,238 90,0 161,-40 214,-92 15,72 51,92 111,92 31,0 73,-7 107,-19l-10 -113c-17,6 -30,9 -41,9 -27,0 -41,-18 -41,-68l0 -278c0,-221 -53,-323 -282,-323 -67,0 -166,16 -214,30l13 118zm-405 -330c0,56 37,92 89,92 51,0 90,-32 90,-92 0,-59 -33,-90 -90,-90 -51,0 -89,31 -89,90zm16 197l0 763 148 0 0 -763 -148 0zm-350 654c-130,0 -184,-106 -184,-274 0,-119 20,-270 145,-270 80,0 113,60 131,131l125 -45c-22,-109 -88,-211 -251,-211 -236,0 -304,194 -304,401 0,183 62,394 321,394 92,0 167,-26 217,-50l-13 -129c-55,30 -113,53 -187,53zm-955 -654l-139 0 0 763 150 0 0 -564c46,-42 108,-83 176,-83 62,0 96,21 104,76 3,16 3,44 3,64l0 507 149 0 0 -527c0,-27 0,-68 -4,-94 -17,-99 -81,-157 -203,-157 -93,0 -174,46 -232,96l-4 -81zm-444 305l-268 0c0,-104 44,-203 142,-203 79,0 126,66 126,203zm144 101l0 -62c0,-230 -79,-359 -268,-359 -168,0 -297,112 -297,389 0,217 68,406 326,406 92,0 178,-27 226,-55l-10 -129c-58,32 -127,56 -201,56 -121,0 -187,-89 -189,-246l413 0zm-903 -603c0,56 37,92 89,92 51,0 89,-32 89,-92 0,-59 -32,-90 -89,-90 -51,0 -89,31 -89,90zm15 197l0 763 149 0 0 -763 -149 0zm-140 -23c-25,-125 -93,-267 -328,-267 -311,0 -382,267 -382,544 0,261 76,529 402,529 137,0 242,-43 296,-78l-30 -132c-72,45 -149,75 -244,75 -192,0 -261,-145 -261,-384 0,-188 17,-426 218,-426 116,0 157,76 182,175 50,-13 98,-25 147,-36zm-1340 328l-267 0c0,-104 44,-203 141,-203 79,0 126,66 126,203zm144 101l0 -62c0,-230 -79,-359 -267,-359 -168,0 -297,112 -297,389 0,217 68,406 325,406 92,0 179,-27 227,-55l-10 -129c-58,32 -128,56 -201,56 -122,0 -187,-89 -190,-246l413 0zm-885 177c-34,36 -81,71 -142,71 -91,0 -149,-91 -149,-260 0,-226 74,-288 156,-288 51,0 93,26 135,57l0 420zm-2 -543c-42,-29 -90,-55 -161,-55 -205,0 -283,207 -283,405 0,264 110,387 264,387 91,0 152,-44 190,-86l4 72 136 0 0 -1032 -150 0 0 309zm-1119 543c-34,36 -81,71 -142,71 -90,0 -148,-91 -148,-260 0,-226 73,-288 155,-288 51,0 94,26 135,57l0 420zm-2 -543c-42,-29 -90,-55 -161,-55 -205,0 -283,207 -283,405 0,264 110,387 264,387 91,0 152,-44 190,-86l4 72 136 0 0 -1032 -150 0 0 309zm-772 546c-37,40 -97,73 -153,73 -75,0 -111,-57 -111,-132 0,-111 60,-153 164,-153 37,0 70,7 100,16l0 196zm-339 -453c50,-16 121,-29 180,-29 109,0 159,45 159,145l0 40c-44,-10 -83,-14 -125,-14 -183,0 -290,85 -290,264 0,130 69,238 219,238 91,0 162,-40 214,-92 15,72 51,92 112,92 31,0 72,-7 106,-19l-10 -113c-17,6 -30,9 -41,9 -27,0 -41,-18 -41,-68l0 -278c0,-221 -52,-323 -282,-323 -66,0 -165,16 -213,30l12 118zm-178 -20l0 -113 -178 0 0 -201 -150 74 0 127 -98 0 0 113 98 0 0 463c0,122 48,204 184,204 55,0 118,-19 155,-37l-17 -119c-32,15 -65,28 -99,28 -72,0 -73,-60 -73,-132l0 -407 178 0zm-793 452c0,127 40,212 187,212 51,0 115,-13 160,-34l-18 -119c-38,17 -77,28 -106,28 -53,0 -71,-33 -71,-107l0 -814 -152 0 0 834zm-342 198l139 0 0 -763 -150 0 0 565c-56,49 -111,83 -179,83 -55,0 -90,-20 -100,-73 -3,-16 -4,-33 -4,-69l0 -506 -150 18 0 508c0,29 1,69 5,95 16,100 81,156 203,156 93,0 167,-40 232,-95l4 81zm-790 -109c-130,0 -184,-106 -184,-274 0,-119 20,-270 145,-270 80,0 113,60 131,131l125 -45c-21,-109 -88,-211 -251,-211 -236,0 -304,194 -304,401 0,183 62,394 321,394 92,0 167,-26 217,-50l-13 -129c-55,30 -113,53 -187,53zm-666 -68c-37,40 -97,73 -153,73 -75,0 -111,-57 -111,-132 0,-111 60,-153 165,-153 36,0 69,7 99,16l0 196zm-339 -453c50,-16 121,-29 180,-29 109,0 159,45 159,145l0 40c-44,-10 -82,-14 -125,-14 -182,0 -290,85 -290,264 0,130 69,238 219,238 91,0 162,-40 214,-92 16,72 51,92 112,92 31,0 72,-7 106,-19l-10 -113c-17,6 -30,9 -41,9 -27,0 -41,-18 -41,-68l0 -278c0,-221 -52,-323 -282,-323 -66,0 -165,16 -213,30l12 118zm-680 -402l0 1032 154 0 0 -468 379 0 0 -127 -379 0 0 -309 454 0 0 -128 -608 0z"/>
   <path class="fil1" d="M269 0l4123 0c147,0 268,123 268,273l0 4192c0,150 -121,273 -268,273l-4123 0c-148,0 -269,-123 -269,-273l0 -4192c0,-150 121,-273 269,-273zm3986 1465l0 180c-137,-94 -303,-149 -481,-149 -367,0 -596,296 -963,296 -366,0 -595,-296 -962,-296 -367,0 -596,296 -963,296 -178,0 -343,-54 -481,-148l0 -179 0 0 0 -358c138,93 303,148 481,148 339,0 615,-296 963,-296 367,0 596,296 962,296 367,0 596,-296 963,-296 178,0 344,55 481,148l0 358zm-2406 210c367,0 596,296 962,296 367,0 596,-296 963,-296 178,0 344,55 481,149l0 179c-137,-94 -303,-148 -481,-148 -367,0 -596,296 -963,296 -366,0 -595,-296 -962,-296 -367,0 -596,296 -963,296 -178,0 -343,-55 -481,-149l0 -179c138,94 303,148 481,148 339,0 615,-296 963,-296zm-1254 941l-171 0 0 744c0,25 1,52 3,80 2,27 5,55 11,82 5,27 12,51 22,74 25,60 68,105 127,136 60,31 135,47 227,47 70,0 130,-9 179,-26 50,-18 91,-42 122,-73 31,-32 54,-68 69,-111 6,-20 11,-41 15,-65 3,-24 6,-48 7,-72 2,-25 3,-48 3,-70l0 -746 -171 0 0 712c0,40 0,75 -3,105 -2,30 -7,57 -14,82 -8,25 -21,47 -38,64 -16,18 -39,31 -66,40 -27,9 -61,14 -101,14 -51,0 -93,-10 -128,-30 -34,-19 -59,-49 -74,-88 -6,-16 -10,-34 -13,-54 -3,-20 -4,-40 -5,-60 -1,-21 -1,-39 -1,-55l0 -730zm1525 0l0 841 -480 -841 -165 0 0 1146 166 0 0 -848 492 848 155 0 0 -1146 -168 0zm422 1146l719 0 0 -193 -475 0 0 -296 396 0 0 -192 -396 0 0 -273 456 0 0 -192 -700 0 0 1146zm1496 -512c33,-18 64,-41 91,-70 28,-29 49,-64 65,-105 17,-42 25,-90 25,-145 0,-55 -10,-102 -29,-141 -19,-40 -46,-73 -81,-98 -36,-25 -79,-44 -128,-56 -49,-13 -104,-19 -164,-19l-393 0 0 1146 242 0 0 -458 148 0 191 458 257 0 -224 -512zm-372 -132l0 -318 137 0c38,-1 70,4 95,13 26,9 45,25 58,47 12,23 19,56 19,97 0,36 -8,66 -22,89 -14,24 -34,42 -58,54 -24,12 -51,18 -81,18l-148 0z"/>
   <path class="fil2" d="M1849 1317c367,0 596,296 962,296 367,0 596,-296 963,-296 178,0 344,55 481,148l0 180c-137,-94 -303,-149 -481,-149 -367,0 -596,296 -963,296 -366,0 -595,-296 -962,-296 -367,0 -596,296 -963,296 -178,0 -343,-54 -481,-148l0 -179c138,94 303,148 481,148 339,0 615,-296 963,-296z"/>
  </g>
 </g>
</svg>
